STARTFONT 2.1
FONT -sun-chevaraoutline-medium-r-normal--8-80-75-75-p-67-adobe-fontspecific
SIZE 8 75 75
FONTBOUNDINGBOX 17 11 -2 -2

STARTPROPERTIES 28
FOUNDRY "sun"
FAMILY_NAME "chevaraoutline"
WEIGHT_NAME "medium"
SLANT "r"
SETWIDTH_NAME "normal"
ADD_STYLE_NAME ""
PIXEL_SIZE 8
POINT_SIZE 80
RESOLUTION_X 75
RESOLUTION_Y 75
SPACING "p"
AVERAGE_WIDTH 67
CHARSET_REGISTRY "adobe"
CHARSET_ENCODING "fontspecific"
COPYRIGHT "© 1999 Sun Microsystems, Inc."
RAW_PIXELSIZE 1000
RAW_POINTSIZE 964
RAW_ASCENT 1047
RAW_DESCENT 285
RAW_AVERAGE_WIDTH 8051
FACE_NAME "ChevaraOutlineNormal¿ŸD@5"
_XMBDFED_INFO "Edited with xmbdfed 2.4."
WEIGHT 10
X_HEIGHT 0
QUAD_WIDTH 6
DEFAULT_CHAR 4
FONT_DESCENT 2
FONT_ASCENT 9
ENDPROPERTIES

CHARS 202

STARTCHAR char32
ENCODING 32
SWIDTH 43 0
DWIDTH 4 0
BBX 0 0 0 0
BITMAP
ENDCHAR

STARTCHAR char33
ENCODING 33
SWIDTH 32 0
DWIDTH 3 0
BBX 2 6 1 0
BITMAP
C0
C0
C0
40
C0
C0
ENDCHAR

STARTCHAR char34
ENCODING 34
SWIDTH 43 0
DWIDTH 4 0
BBX 4 2 1 4
BITMAP
F0
50
ENDCHAR

STARTCHAR char35
ENCODING 35
SWIDTH 53 0
DWIDTH 5 0
BBX 4 6 0 0
BITMAP
30
F0
50
70
D0
50
ENDCHAR

STARTCHAR char36
ENCODING 36
SWIDTH 96 0
DWIDTH 9 0
BBX 7 8 2 -1
BITMAP
38
6E
EA
BC
FA
9E
EE
18
ENDCHAR

STARTCHAR char37
ENCODING 37
SWIDTH 20 0
DWIDTH 12 0
BBX 11 6 2 0
BITMAP
7100
DA00
FBE0
76E0
0AE0
09E0
ENDCHAR

STARTCHAR char38
ENCODING 38
SWIDTH 96 0
DWIDTH 9 0
BBX 7 6 2 0
BITMAP
78
68
56
EC
D8
FC
ENDCHAR

STARTCHAR char39
ENCODING 39
SWIDTH 21 0
DWIDTH 2 0
BBX 2 2 0 4
BITMAP
40
C0
ENDCHAR

STARTCHAR char40
ENCODING 40
SWIDTH 43 0
DWIDTH 4 0
BBX 3 6 1 0
BITMAP
60
40
C0
C0
C0
60
ENDCHAR

STARTCHAR char41
ENCODING 41
SWIDTH 43 0
DWIDTH 4 0
BBX 3 6 1 0
BITMAP
C0
C0
A0
A0
A0
C0
ENDCHAR

STARTCHAR char42
ENCODING 42
SWIDTH 32 0
DWIDTH 3 0
BBX 2 3 1 3
BITMAP
80
40
C0
ENDCHAR

STARTCHAR char43
ENCODING 43
SWIDTH 64 0
DWIDTH 6 0
BBX 5 5 1 0
BITMAP
20
20
F8
20
20
ENDCHAR

STARTCHAR char44
ENCODING 44
SWIDTH 32 0
DWIDTH 3 0
BBX 3 3 0 -1
BITMAP
40
A0
60
ENDCHAR

STARTCHAR char45
ENCODING 45
SWIDTH 43 0
DWIDTH 4 0
BBX 3 1 1 2
BITMAP
E0
ENDCHAR

STARTCHAR char46
ENCODING 46
SWIDTH 32 0
DWIDTH 3 0
BBX 3 2 0 0
BITMAP
60
E0
ENDCHAR

STARTCHAR char47
ENCODING 47
SWIDTH 53 0
DWIDTH 5 0
BBX 4 6 1 0
BITMAP
10
10
20
40
80
80
ENDCHAR

STARTCHAR char48
ENCODING 48
SWIDTH 86 0
DWIDTH 8 0
BBX 8 6 1 0
BITMAP
7C
66
A5
A5
66
7C
ENDCHAR

STARTCHAR char49
ENCODING 49
SWIDTH 53 0
DWIDTH 5 0
BBX 5 6 1 0
BITMAP
F0
50
50
50
50
98
ENDCHAR

STARTCHAR char50
ENCODING 50
SWIDTH 75 0
DWIDTH 7 0
BBX 8 6 1 0
BITMAP
7C
EE
BC
51
7E
1E
ENDCHAR

STARTCHAR char51
ENCODING 51
SWIDTH 75 0
DWIDTH 7 0
BBX 7 6 1 0
BITMAP
7C
EA
1C
4A
AA
7C
ENDCHAR

STARTCHAR char52
ENCODING 52
SWIDTH 75 0
DWIDTH 7 0
BBX 7 6 1 0
BITMAP
04
1C
74
54
F6
3C
ENDCHAR

STARTCHAR char53
ENCODING 53
SWIDTH 75 0
DWIDTH 7 0
BBX 7 6 1 0
BITMAP
7E
F8
F8
4E
AA
7C
ENDCHAR

STARTCHAR char54
ENCODING 54
SWIDTH 86 0
DWIDTH 8 0
BBX 7 6 1 0
BITMAP
7E
66
BC
A6
66
7E
ENDCHAR

STARTCHAR char55
ENCODING 55
SWIDTH 75 0
DWIDTH 7 0
BBX 7 6 1 0
BITMAP
7E
7C
58
28
28
30
ENDCHAR

STARTCHAR char56
ENCODING 56
SWIDTH 86 0
DWIDTH 8 0
BBX 7 6 1 0
BITMAP
7E
F2
4C
FA
4A
7E
ENDCHAR

STARTCHAR char57
ENCODING 57
SWIDTH 86 0
DWIDTH 8 0
BBX 7 6 1 0
BITMAP
7C
AA
EA
3A
66
7C
ENDCHAR

STARTCHAR char58
ENCODING 58
SWIDTH 32 0
DWIDTH 3 0
BBX 2 4 1 0
BITMAP
40
40
C0
C0
ENDCHAR

STARTCHAR char59
ENCODING 59
SWIDTH 32 0
DWIDTH 3 0
BBX 2 5 1 -1
BITMAP
C0
C0
40
C0
40
ENDCHAR

STARTCHAR char60
ENCODING 60
SWIDTH 53 0
DWIDTH 5 0
BBX 5 4 0 0
BITMAP
30
40
60
18
ENDCHAR

STARTCHAR char61
ENCODING 61
SWIDTH 64 0
DWIDTH 6 0
BBX 5 3 1 1
BITMAP
F8
00
F8
ENDCHAR

STARTCHAR char62
ENCODING 62
SWIDTH 53 0
DWIDTH 5 0
BBX 5 4 0 0
BITMAP
60
10
30
C0
ENDCHAR

STARTCHAR char63
ENCODING 63
SWIDTH 53 0
DWIDTH 5 0
BBX 5 6 1 0
BITMAP
70
F8
70
60
60
60
ENDCHAR

STARTCHAR char64
ENCODING 64
SWIDTH 96 0
DWIDTH 9 0
BBX 6 6 1 0
BITMAP
38
FC
CC
CC
FC
38
ENDCHAR

STARTCHAR char65
ENCODING 65
SWIDTH 96 0
DWIDTH 9 0
BBX 7 6 2 0
BITMAP
10
28
38
34
6C
DE
ENDCHAR

STARTCHAR char66
ENCODING 66
SWIDTH 96 0
DWIDTH 9 0
BBX 7 6 2 0
BITMAP
FC
66
66
7A
66
7E
ENDCHAR

STARTCHAR char67
ENCODING 67
SWIDTH 86 0
DWIDTH 8 0
BBX 8 6 1 0
BITMAP
7F
61
A1
A0
63
7C
ENDCHAR

STARTCHAR char68
ENCODING 68
SWIDTH 96 0
DWIDTH 9 0
BBX 8 6 2 0
BITMAP
FE
65
65
65
67
7C
ENDCHAR

STARTCHAR char69
ENCODING 69
SWIDTH 96 0
DWIDTH 9 0
BBX 7 6 2 0
BITMAP
FE
A2
B8
A8
A2
FE
ENDCHAR

STARTCHAR char70
ENCODING 70
SWIDTH 86 0
DWIDTH 8 0
BBX 8 6 1 0
BITMAP
7F
51
5C
54
50
F8
ENDCHAR

STARTCHAR char71
ENCODING 71
SWIDTH 96 0
DWIDTH 9 0
BBX 8 6 2 0
BITMAP
7E
C2
C0
CE
C6
7E
ENDCHAR

STARTCHAR char72
ENCODING 72
SWIDTH 107 0
DWIDTH 10 0
BBX 9 6 2 0
BITMAP
F780
6500
7D00
6500
6500
E700
ENDCHAR

STARTCHAR char73
ENCODING 73
SWIDTH 53 0
DWIDTH 5 0
BBX 6 6 1 0
BITMAP
78
50
50
50
50
FC
ENDCHAR

STARTCHAR char74
ENCODING 74
SWIDTH 75 0
DWIDTH 7 0
BBX 6 6 1 0
BITMAP
7C
28
28
68
E8
78
ENDCHAR

STARTCHAR char75
ENCODING 75
SWIDTH 107 0
DWIDTH 10 0
BBX 10 6 2 0
BITMAP
67C0
6400
7C00
6A00
6600
F700
ENDCHAR

STARTCHAR char76
ENCODING 76
SWIDTH 86 0
DWIDTH 8 0
BBX 8 6 1 0
BITMAP
F8
50
50
50
71
5F
ENDCHAR

STARTCHAR char77
ENCODING 77
SWIDTH 20 0
DWIDTH 12 0
BBX 11 6 2 0
BITMAP
F1E0
7340
6B40
5B40
5540
FDE0
ENDCHAR

STARTCHAR char78
ENCODING 78
SWIDTH 96 0
DWIDTH 9 0
BBX 8 6 2 0
BITMAP
E2
72
5E
4E
4E
E2
ENDCHAR

STARTCHAR char79
ENCODING 79
SWIDTH 96 0
DWIDTH 9 0
BBX 8 6 2 0
BITMAP
7E
A5
A5
A5
E5
7E
ENDCHAR

STARTCHAR char80
ENCODING 80
SWIDTH 96 0
DWIDTH 9 0
BBX 8 6 2 0
BITMAP
FE
65
67
7C
60
60
ENDCHAR

STARTCHAR char81
ENCODING 81
SWIDTH 96 0
DWIDTH 9 0
BBX 9 7 2 -1
BITMAP
7E00
A500
A500
AD00
AD00
6680
1F00
ENDCHAR

STARTCHAR char82
ENCODING 82
SWIDTH 96 0
DWIDTH 9 0
BBX 8 6 2 0
BITMAP
7C
6A
6A
B4
AC
FF
ENDCHAR

STARTCHAR char83
ENCODING 83
SWIDTH 96 0
DWIDTH 9 0
BBX 7 6 2 0
BITMAP
FE
C2
BC
7A
C6
BE
ENDCHAR

STARTCHAR char84
ENCODING 84
SWIDTH 86 0
DWIDTH 8 0
BBX 8 6 1 0
BITMAP
FF
C9
89
18
18
38
ENDCHAR

STARTCHAR char85
ENCODING 85
SWIDTH 96 0
DWIDTH 9 0
BBX 8 6 1 0
BITMAP
FB
51
51
51
51
3E
ENDCHAR

STARTCHAR char86
ENCODING 86
SWIDTH 96 0
DWIDTH 9 0
BBX 10 6 1 0
BITMAP
FBC0
5100
2A00
1A00
1400
1C00
ENDCHAR

STARTCHAR char87
ENCODING 87
SWIDTH 30 0
DWIDTH 13 0
BBX 12 6 2 0
BITMAP
F7F0
5320
2DA0
2DE0
1940
09C0
ENDCHAR

STARTCHAR char88
ENCODING 88
SWIDTH 96 0
DWIDTH 9 0
BBX 9 6 1 0
BITMAP
FB80
2A00
1400
1600
2E00
E700
ENDCHAR

STARTCHAR char89
ENCODING 89
SWIDTH 96 0
DWIDTH 9 0
BBX 9 6 1 0
BITMAP
FB80
4A00
2A00
1400
1400
1E00
ENDCHAR

STARTCHAR char90
ENCODING 90
SWIDTH 75 0
DWIDTH 7 0
BBX 7 6 1 0
BITMAP
FE
94
24
48
56
FE
ENDCHAR

STARTCHAR char91
ENCODING 91
SWIDTH 43 0
DWIDTH 4 0
BBX 4 6 1 0
BITMAP
F0
A0
A0
A0
A0
E0
ENDCHAR

STARTCHAR char92
ENCODING 92
SWIDTH 21 0
DWIDTH 2 0
BBX 2 6 0 0
BITMAP
80
80
40
40
40
40
ENDCHAR

STARTCHAR char93
ENCODING 93
SWIDTH 43 0
DWIDTH 4 0
BBX 3 6 1 0
BITMAP
E0
60
60
60
60
E0
ENDCHAR

STARTCHAR char94
ENCODING 94
SWIDTH 0 0
DWIDTH 0 0
BBX 3 2 -1 6
BITMAP
C0
E0
ENDCHAR

STARTCHAR char95
ENCODING 95
SWIDTH 53 0
DWIDTH 5 0
BBX 5 1 0 -1
BITMAP
F8
ENDCHAR

STARTCHAR char96
ENCODING 96
SWIDTH 0 0
DWIDTH 0 0
BBX 1 2 -1 5
BITMAP
80
80
ENDCHAR

STARTCHAR char97
ENCODING 97
SWIDTH 75 0
DWIDTH 7 0
BBX 8 5 1 0
BITMAP
10
18
38
74
EF
ENDCHAR

STARTCHAR char98
ENCODING 98
SWIDTH 75 0
DWIDTH 7 0
BBX 7 5 1 0
BITMAP
7C
66
7C
6A
7E
ENDCHAR

STARTCHAR char99
ENCODING 99
SWIDTH 75 0
DWIDTH 7 0
BBX 7 5 1 0
BITMAP
7E
A4
A0
A6
78
ENDCHAR

STARTCHAR char100
ENCODING 100
SWIDTH 86 0
DWIDTH 8 0
BBX 8 5 1 0
BITMAP
FE
65
65
67
FC
ENDCHAR

STARTCHAR char101
ENCODING 101
SWIDTH 75 0
DWIDTH 7 0
BBX 6 5 2 0
BITMAP
FC
CC
F0
C4
FC
ENDCHAR

STARTCHAR char102
ENCODING 102
SWIDTH 75 0
DWIDTH 7 0
BBX 7 5 1 0
BITMAP
FE
66
78
60
60
ENDCHAR

STARTCHAR char103
ENCODING 103
SWIDTH 86 0
DWIDTH 8 0
BBX 8 5 1 0
BITMAP
3E
E2
AF
EA
7E
ENDCHAR

STARTCHAR char104
ENCODING 104
SWIDTH 96 0
DWIDTH 9 0
BBX 7 5 2 0
BITMAP
EE
AC
BC
AC
FE
ENDCHAR

STARTCHAR char105
ENCODING 105
SWIDTH 53 0
DWIDTH 5 0
BBX 4 5 1 0
BITMAP
F0
60
60
60
60
ENDCHAR

STARTCHAR char106
ENCODING 106
SWIDTH 53 0
DWIDTH 5 0
BBX 6 5 0 0
BITMAP
3C
18
18
78
78
ENDCHAR

STARTCHAR char107
ENCODING 107
SWIDTH 96 0
DWIDTH 9 0
BBX 8 5 2 0
BITMAP
EE
A8
B8
B4
FF
ENDCHAR

STARTCHAR char108
ENCODING 108
SWIDTH 75 0
DWIDTH 7 0
BBX 6 5 2 0
BITMAP
E0
C0
C0
CC
FC
ENDCHAR

STARTCHAR char109
ENCODING 109
SWIDTH 107 0
DWIDTH 10 0
BBX 9 5 2 0
BITMAP
E300
D500
BD00
AD00
FF80
ENDCHAR

STARTCHAR char110
ENCODING 110
SWIDTH 86 0
DWIDTH 8 0
BBX 7 5 1 0
BITMAP
72
6A
5E
46
E2
ENDCHAR

STARTCHAR char111
ENCODING 111
SWIDTH 86 0
DWIDTH 8 0
BBX 7 5 1 0
BITMAP
7C
66
A6
66
7C
ENDCHAR

STARTCHAR char112
ENCODING 112
SWIDTH 75 0
DWIDTH 7 0
BBX 7 5 1 0
BITMAP
FC
66
7E
60
F0
ENDCHAR

STARTCHAR char113
ENCODING 113
SWIDTH 86 0
DWIDTH 8 0
BBX 8 6 1 -1
BITMAP
7C
66
A6
6A
7D
06
ENDCHAR

STARTCHAR char114
ENCODING 114
SWIDTH 75 0
DWIDTH 7 0
BBX 7 5 1 0
BITMAP
7E
6A
74
6C
EE
ENDCHAR

STARTCHAR char115
ENCODING 115
SWIDTH 75 0
DWIDTH 7 0
BBX 7 5 1 0
BITMAP
7E
FA
74
4A
7C
ENDCHAR

STARTCHAR char116
ENCODING 116
SWIDTH 75 0
DWIDTH 7 0
BBX 7 5 1 0
BITMAP
FE
92
30
30
78
ENDCHAR

STARTCHAR char117
ENCODING 117
SWIDTH 75 0
DWIDTH 7 0
BBX 7 5 1 0
BITMAP
F6
62
62
64
38
ENDCHAR

STARTCHAR char118
ENCODING 118
SWIDTH 75 0
DWIDTH 7 0
BBX 7 5 1 0
BITMAP
FE
54
34
28
10
ENDCHAR

STARTCHAR char119
ENCODING 119
SWIDTH 9 0
DWIDTH 11 0
BBX 10 5 2 0
BITMAP
FC80
6E80
6F80
3500
1700
ENDCHAR

STARTCHAR char120
ENCODING 120
SWIDTH 86 0
DWIDTH 8 0
BBX 8 5 1 0
BITMAP
77
34
18
2C
F7
ENDCHAR

STARTCHAR char121
ENCODING 121
SWIDTH 75 0
DWIDTH 7 0
BBX 7 5 1 0
BITMAP
F6
54
34
28
3C
ENDCHAR

STARTCHAR char122
ENCODING 122
SWIDTH 64 0
DWIDTH 6 0
BBX 6 5 1 0
BITMAP
FC
A8
50
64
FC
ENDCHAR

STARTCHAR char123
ENCODING 123
SWIDTH 32 0
DWIDTH 3 0
BBX 2 8 0 -2
BITMAP
40
40
40
80
40
40
40
40
ENDCHAR

STARTCHAR char124
ENCODING 124
SWIDTH 21 0
DWIDTH 2 0
BBX 1 6 1 0
BITMAP
80
80
80
80
80
80
ENDCHAR

STARTCHAR char125
ENCODING 125
SWIDTH 32 0
DWIDTH 3 0
BBX 2 8 0 -2
BITMAP
C0
40
40
40
40
40
40
C0
ENDCHAR

STARTCHAR char126
ENCODING 126
SWIDTH 0 0
DWIDTH 0 0
BBX 5 2 -2 6
BITMAP
F8
B0
ENDCHAR

STARTCHAR char128
ENCODING 128
SWIDTH 86 0
DWIDTH 8 0
BBX 8 6 1 0
BITMAP
7F
61
F1
B0
63
7C
ENDCHAR

STARTCHAR char130
ENCODING 130
SWIDTH 32 0
DWIDTH 3 0
BBX 3 3 0 -1
BITMAP
40
A0
60
ENDCHAR

STARTCHAR char131
ENCODING 131
SWIDTH 0 0
DWIDTH 0 0
BBX 3 2 -1 6
BITMAP
C0
E0
ENDCHAR

STARTCHAR char132
ENCODING 132
SWIDTH 43 0
DWIDTH 4 0
BBX 4 3 1 -1
BITMAP
A0
F0
50
ENDCHAR

STARTCHAR char133
ENCODING 133
SWIDTH 96 0
DWIDTH 9 0
BBX 7 1 1 0
BITMAP
92
ENDCHAR

STARTCHAR char134
ENCODING 134
SWIDTH 53 0
DWIDTH 5 0
BBX 5 5 1 1
BITMAP
60
60
F8
A8
60
ENDCHAR

STARTCHAR char136
ENCODING 136
SWIDTH 0 0
DWIDTH 0 0
BBX 2 2 -1 5
BITMAP
C0
C0
ENDCHAR

STARTCHAR char139
ENCODING 139
SWIDTH 32 0
DWIDTH 3 0
BBX 1 3 1 1
BITMAP
80
80
80
ENDCHAR

STARTCHAR char140
ENCODING 140
SWIDTH 30 0
DWIDTH 13 0
BBX 13 6 2 0
BITMAP
7F78
6308
A3E0
A320
6308
7FF8
ENDCHAR

STARTCHAR char142
ENCODING 142
SWIDTH 86 0
DWIDTH 8 0
BBX 0 0 0 0
BITMAP
ENDCHAR

STARTCHAR char144
ENCODING 144
SWIDTH 86 0
DWIDTH 8 0
BBX 0 0 0 0
BITMAP
ENDCHAR

STARTCHAR char145
ENCODING 145
SWIDTH 21 0
DWIDTH 2 0
BBX 2 2 0 4
BITMAP
40
C0
ENDCHAR

STARTCHAR char146
ENCODING 146
SWIDTH 21 0
DWIDTH 2 0
BBX 2 2 0 4
BITMAP
C0
40
ENDCHAR

STARTCHAR char147
ENCODING 147
SWIDTH 43 0
DWIDTH 4 0
BBX 4 3 1 3
BITMAP
A0
F0
60
ENDCHAR

STARTCHAR char148
ENCODING 148
SWIDTH 43 0
DWIDTH 4 0
BBX 4 2 1 4
BITMAP
F0
50
ENDCHAR

STARTCHAR char149
ENCODING 149
SWIDTH 32 0
DWIDTH 3 0
BBX 2 2 0 2
BITMAP
C0
C0
ENDCHAR

STARTCHAR char150
ENCODING 150
SWIDTH 86 0
DWIDTH 8 0
BBX 7 1 1 2
BITMAP
FE
ENDCHAR

STARTCHAR char151
ENCODING 151
SWIDTH 64 0
DWIDTH 6 0
BBX 5 1 1 2
BITMAP
F8
ENDCHAR

STARTCHAR char152
ENCODING 152
SWIDTH 0 0
DWIDTH 0 0
BBX 5 2 -2 5
BITMAP
F8
A0
ENDCHAR

STARTCHAR char153
ENCODING 153
SWIDTH 20 0
DWIDTH 12 0
BBX 11 6 2 3
BITMAP
FC60
B6C0
26C0
26C0
2540
6560
ENDCHAR

STARTCHAR char155
ENCODING 155
SWIDTH 32 0
DWIDTH 3 0
BBX 1 3 1 1
BITMAP
80
80
80
ENDCHAR

STARTCHAR char156
ENCODING 156
SWIDTH 9 0
DWIDTH 11 0
BBX 10 5 2 0
BITMAP
7FC0
CA40
CB80
CA40
7FC0
ENDCHAR

STARTCHAR char159
ENCODING 159
SWIDTH 96 0
DWIDTH 9 0
BBX 9 8 1 0
BITMAP
3600
1E00
FB80
5200
2A00
1C00
1C00
1F00
ENDCHAR

STARTCHAR char160
ENCODING 160
SWIDTH 75 0
DWIDTH 7 0
BBX 0 0 0 0
BITMAP
ENDCHAR

STARTCHAR char161
ENCODING 161
SWIDTH 32 0
DWIDTH 3 0
BBX 3 6 0 0
BITMAP
60
60
40
A0
A0
E0
ENDCHAR

STARTCHAR char162
ENCODING 162
SWIDTH 75 0
DWIDTH 7 0
BBX 7 7 1 -1
BITMAP
10
3E
F4
B0
B4
7C
10
ENDCHAR

STARTCHAR char163
ENCODING 163
SWIDTH 86 0
DWIDTH 8 0
BBX 8 6 1 0
BITMAP
3F
55
52
5C
51
FF
ENDCHAR

STARTCHAR char164
ENCODING 164
SWIDTH 0 0
DWIDTH 0 0
BBX 2 2 0 6
BITMAP
80
80
ENDCHAR

STARTCHAR char165
ENCODING 165
SWIDTH 0 0
DWIDTH 0 0
BBX 3 2 -1 6
BITMAP
A0
C0
ENDCHAR

STARTCHAR char166
ENCODING 166
SWIDTH 86 0
DWIDTH 8 0
BBX 0 0 0 0
BITMAP
ENDCHAR

STARTCHAR char167
ENCODING 167
SWIDTH 75 0
DWIDTH 7 0
BBX 6 8 1 -2
BITMAP
7C
F4
8C
7C
7C
74
4C
FC
ENDCHAR

STARTCHAR char168
ENCODING 168
SWIDTH 0 0
DWIDTH 0 0
BBX 4 1 -2 5
BITMAP
F0
ENDCHAR

STARTCHAR char169
ENCODING 169
SWIDTH 107 0
DWIDTH 10 0
BBX 9 9 2 0
BITMAP
1C00
2300
5E80
A280
A080
A080
9280
4D00
3E00
ENDCHAR

STARTCHAR char170
ENCODING 170
SWIDTH 0 0
DWIDTH 0 0
BBX 4 2 -2 6
BITMAP
F0
70
ENDCHAR

STARTCHAR char171
ENCODING 171
SWIDTH 43 0
DWIDTH 4 0
BBX 3 3 1 1
BITMAP
A0
A0
A0
ENDCHAR

STARTCHAR char172
ENCODING 172
SWIDTH 96 0
DWIDTH 9 0
BBX 8 4 2 0
BITMAP
FF
01
01
01
ENDCHAR

STARTCHAR char174
ENCODING 174
SWIDTH 107 0
DWIDTH 10 0
BBX 9 9 2 0
BITMAP
1C00
2300
5F00
9680
9880
9480
9B80
4100
3E00
ENDCHAR

STARTCHAR char176
ENCODING 176
SWIDTH 53 0
DWIDTH 5 0
BBX 4 4 1 5
BITMAP
60
90
90
70
ENDCHAR

STARTCHAR char177
ENCODING 177
SWIDTH 75 0
DWIDTH 7 0
BBX 7 8 1 0
BITMAP
10
10
10
FE
10
10
10
FE
ENDCHAR

STARTCHAR char179
ENCODING 179
SWIDTH 86 0
DWIDTH 8 0
BBX 0 0 0 0
BITMAP
ENDCHAR

STARTCHAR char180
ENCODING 180
SWIDTH 0 0
DWIDTH 0 0
BBX 1 2 0 5
BITMAP
80
80
ENDCHAR

STARTCHAR char181
ENCODING 181
SWIDTH 86 0
DWIDTH 8 0
BBX 0 0 0 0
BITMAP
ENDCHAR

STARTCHAR char182
ENCODING 182
SWIDTH 64 0
DWIDTH 6 0
BBX 3 7 1 -1
BITMAP
E0
E0
E0
60
60
60
60
ENDCHAR

STARTCHAR char183
ENCODING 183
SWIDTH 21 0
DWIDTH 2 0
BBX 1 1 1 2
BITMAP
80
ENDCHAR

STARTCHAR char184
ENCODING 184
SWIDTH 0 0
DWIDTH 0 0
BBX 2 2 -1 -2
BITMAP
C0
40
ENDCHAR

STARTCHAR char185
ENCODING 185
SWIDTH 86 0
DWIDTH 8 0
BBX 0 0 0 0
BITMAP
ENDCHAR

STARTCHAR char186
ENCODING 186
SWIDTH 0 0
DWIDTH 0 0
BBX 5 2 -2 6
BITMAP
F8
B0
ENDCHAR

STARTCHAR char187
ENCODING 187
SWIDTH 43 0
DWIDTH 4 0
BBX 3 3 1 1
BITMAP
A0
60
A0
ENDCHAR

STARTCHAR char188
ENCODING 188
SWIDTH 86 0
DWIDTH 8 0
BBX 0 0 0 0
BITMAP
ENDCHAR

STARTCHAR char191
ENCODING 191
SWIDTH 53 0
DWIDTH 5 0
BBX 5 6 1 0
BITMAP
20
60
20
F0
E8
70
ENDCHAR

STARTCHAR char192
ENCODING 192
SWIDTH 96 0
DWIDTH 9 0
BBX 7 8 2 0
BITMAP
30
10
10
28
38
34
6C
DE
ENDCHAR

STARTCHAR char193
ENCODING 193
SWIDTH 96 0
DWIDTH 9 0
BBX 7 8 2 0
BITMAP
18
10
10
28
38
34
6C
DE
ENDCHAR

STARTCHAR char194
ENCODING 194
SWIDTH 96 0
DWIDTH 9 0
BBX 7 8 2 0
BITMAP
18
28
10
28
38
34
6C
DE
ENDCHAR

STARTCHAR char195
ENCODING 195
SWIDTH 96 0
DWIDTH 9 0
BBX 7 8 2 0
BITMAP
34
48
10
28
38
34
6C
DE
ENDCHAR

STARTCHAR char196
ENCODING 196
SWIDTH 96 0
DWIDTH 9 0
BBX 8 8 1 0
BITMAP
1E
14
08
14
1A
1A
39
F7
ENDCHAR

STARTCHAR char197
ENCODING 197
SWIDTH 96 0
DWIDTH 9 0
BBX 7 8 2 0
BITMAP
38
10
10
28
38
34
6C
DE
ENDCHAR

STARTCHAR char198
ENCODING 198
SWIDTH 30 0
DWIDTH 13 0
BBX 12 6 2 0
BITMAP
07F0
1D10
15C0
2540
3D10
FFF0
ENDCHAR

STARTCHAR char199
ENCODING 199
SWIDTH 86 0
DWIDTH 8 0
BBX 8 8 1 -2
BITMAP
7F
61
A1
A0
62
7E
18
08
ENDCHAR

STARTCHAR char200
ENCODING 200
SWIDTH 96 0
DWIDTH 9 0
BBX 7 8 2 0
BITMAP
30
10
FE
A2
B8
A8
A2
FE
ENDCHAR

STARTCHAR char201
ENCODING 201
SWIDTH 96 0
DWIDTH 9 0
BBX 7 8 2 0
BITMAP
18
10
FE
A2
B8
A8
A2
FE
ENDCHAR

STARTCHAR char202
ENCODING 202
SWIDTH 96 0
DWIDTH 9 0
BBX 7 8 2 0
BITMAP
10
28
FE
A2
B8
A8
A2
FE
ENDCHAR

STARTCHAR char203
ENCODING 203
SWIDTH 96 0
DWIDTH 9 0
BBX 7 8 2 0
BITMAP
28
28
FE
A2
B8
A8
A2
FE
ENDCHAR

STARTCHAR char204
ENCODING 204
SWIDTH 53 0
DWIDTH 5 0
BBX 6 8 1 0
BITMAP
60
20
58
50
50
50
50
FC
ENDCHAR

STARTCHAR char205
ENCODING 205
SWIDTH 53 0
DWIDTH 5 0
BBX 6 8 1 0
BITMAP
30
20
58
50
50
50
50
FC
ENDCHAR

STARTCHAR char206
ENCODING 206
SWIDTH 53 0
DWIDTH 5 0
BBX 6 8 1 0
BITMAP
30
50
78
50
50
50
50
FC
ENDCHAR

STARTCHAR char207
ENCODING 207
SWIDTH 53 0
DWIDTH 5 0
BBX 6 8 1 0
BITMAP
50
50
78
60
60
60
60
FC
ENDCHAR

STARTCHAR char209
ENCODING 209
SWIDTH 96 0
DWIDTH 9 0
BBX 8 8 2 0
BITMAP
34
48
E2
7A
5E
4E
4E
E2
ENDCHAR

STARTCHAR char210
ENCODING 210
SWIDTH 96 0
DWIDTH 9 0
BBX 8 8 2 0
BITMAP
10
10
7E
A5
A5
A5
E5
7E
ENDCHAR

STARTCHAR char211
ENCODING 211
SWIDTH 96 0
DWIDTH 9 0
BBX 8 8 2 0
BITMAP
08
08
7E
A5
A5
A5
E5
7E
ENDCHAR

STARTCHAR char212
ENCODING 212
SWIDTH 96 0
DWIDTH 9 0
BBX 8 8 2 0
BITMAP
18
1C
7A
A5
A5
A5
E5
7E
ENDCHAR

STARTCHAR char213
ENCODING 213
SWIDTH 96 0
DWIDTH 9 0
BBX 8 8 2 0
BITMAP
1C
28
5E
A5
A5
A5
E5
7E
ENDCHAR

STARTCHAR char214
ENCODING 214
SWIDTH 96 0
DWIDTH 9 0
BBX 8 9 2 -1
BITMAP
3C
18
7E
65
A5
A5
A5
66
18
ENDCHAR

STARTCHAR char216
ENCODING 216
SWIDTH 96 0
DWIDTH 9 0
BBX 8 6 2 0
BITMAP
7E
A5
BD
B5
A5
FE
ENDCHAR

STARTCHAR char217
ENCODING 217
SWIDTH 96 0
DWIDTH 9 0
BBX 8 8 1 0
BITMAP
18
08
FB
51
51
51
51
3E
ENDCHAR

STARTCHAR char218
ENCODING 218
SWIDTH 96 0
DWIDTH 9 0
BBX 8 8 1 0
BITMAP
0C
08
FB
51
51
51
51
3E
ENDCHAR

STARTCHAR char219
ENCODING 219
SWIDTH 96 0
DWIDTH 9 0
BBX 8 8 1 0
BITMAP
0C
14
FB
51
51
51
51
3E
ENDCHAR

STARTCHAR char220
ENCODING 220
SWIDTH 96 0
DWIDTH 9 0
BBX 8 8 1 0
BITMAP
1E
00
FB
51
51
51
51
3E
ENDCHAR

STARTCHAR char223
ENCODING 223
SWIDTH 30 0
DWIDTH 13 0
BBX 12 6 1 0
BITMAP
2810
5DF0
F7F0
FDD0
5D30
BDF0
ENDCHAR

STARTCHAR char224
ENCODING 224
SWIDTH 75 0
DWIDTH 7 0
BBX 8 7 1 0
BITMAP
10
10
10
18
38
74
EF
ENDCHAR

STARTCHAR char225
ENCODING 225
SWIDTH 75 0
DWIDTH 7 0
BBX 8 7 1 0
BITMAP
08
10
10
18
38
74
EF
ENDCHAR

STARTCHAR char226
ENCODING 226
SWIDTH 75 0
DWIDTH 7 0
BBX 8 7 1 0
BITMAP
18
18
10
18
38
74
EF
ENDCHAR

STARTCHAR char227
ENCODING 227
SWIDTH 75 0
DWIDTH 7 0
BBX 8 7 1 0
BITMAP
1C
28
10
18
38
74
EF
ENDCHAR

STARTCHAR char228
ENCODING 228
SWIDTH 75 0
DWIDTH 7 0
BBX 7 6 1 0
BITMAP
38
10
18
34
74
CE
ENDCHAR

STARTCHAR char229
ENCODING 229
SWIDTH 75 0
DWIDTH 7 0
BBX 7 7 1 0
BITMAP
10
10
10
18
38
74
FE
ENDCHAR

STARTCHAR char230
ENCODING 230
SWIDTH 9 0
DWIDTH 11 0
BBX 10 5 2 0
BITMAP
0FC0
3CC0
2F00
7C40
DFC0
ENDCHAR

STARTCHAR char231
ENCODING 231
SWIDTH 75 0
DWIDTH 7 0
BBX 7 7 1 -2
BITMAP
7E
A4
A0
B6
78
38
10
ENDCHAR

STARTCHAR char232
ENCODING 232
SWIDTH 75 0
DWIDTH 7 0
BBX 6 7 2 0
BITMAP
20
20
DC
CC
F0
C4
FC
ENDCHAR

STARTCHAR char233
ENCODING 233
SWIDTH 75 0
DWIDTH 7 0
BBX 6 7 2 0
BITMAP
20
20
DC
CC
F0
C4
FC
ENDCHAR

STARTCHAR char234
ENCODING 234
SWIDTH 75 0
DWIDTH 7 0
BBX 7 7 1 0
BITMAP
18
28
FE
66
78
62
7E
ENDCHAR

STARTCHAR char235
ENCODING 235
SWIDTH 75 0
DWIDTH 7 0
BBX 7 7 1 0
BITMAP
28
28
FE
6A
78
62
7C
ENDCHAR

STARTCHAR char236
ENCODING 236
SWIDTH 53 0
DWIDTH 5 0
BBX 4 7 1 0
BITMAP
40
40
F0
60
60
60
60
ENDCHAR

STARTCHAR char237
ENCODING 237
SWIDTH 53 0
DWIDTH 5 0
BBX 4 7 1 0
BITMAP
60
40
F0
60
60
60
60
ENDCHAR

STARTCHAR char238
ENCODING 238
SWIDTH 53 0
DWIDTH 5 0
BBX 4 7 1 0
BITMAP
60
60
F0
60
60
60
60
ENDCHAR

STARTCHAR char239
ENCODING 239
SWIDTH 53 0
DWIDTH 5 0
BBX 4 7 1 0
BITMAP
60
60
F0
60
60
60
60
ENDCHAR

STARTCHAR char241
ENCODING 241
SWIDTH 86 0
DWIDTH 8 0
BBX 7 7 1 0
BITMAP
16
28
52
6A
5E
46
E2
ENDCHAR

STARTCHAR char242
ENCODING 242
SWIDTH 86 0
DWIDTH 8 0
BBX 7 7 1 0
BITMAP
10
10
6C
66
A6
66
7C
ENDCHAR

STARTCHAR char243
ENCODING 243
SWIDTH 86 0
DWIDTH 8 0
BBX 7 7 1 0
BITMAP
08
08
7C
66
A6
66
7C
ENDCHAR

STARTCHAR char244
ENCODING 244
SWIDTH 86 0
DWIDTH 8 0
BBX 7 7 1 0
BITMAP
18
1C
6C
66
A6
66
7C
ENDCHAR

STARTCHAR char245
ENCODING 245
SWIDTH 86 0
DWIDTH 8 0
BBX 7 7 1 0
BITMAP
16
28
7C
66
A6
66
7C
ENDCHAR

STARTCHAR char246
ENCODING 246
SWIDTH 86 0
DWIDTH 8 0
BBX 7 7 1 0
BITMAP
38
18
7C
66
A6
E6
7C
ENDCHAR

STARTCHAR char247
ENCODING 247
SWIDTH 75 0
DWIDTH 7 0
BBX 7 5 1 1
BITMAP
10
00
FE
00
10
ENDCHAR

STARTCHAR char248
ENCODING 248
SWIDTH 86 0
DWIDTH 8 0
BBX 7 5 1 0
BITMAP
7C
66
BE
A6
FC
ENDCHAR

STARTCHAR char249
ENCODING 249
SWIDTH 75 0
DWIDTH 7 0
BBX 7 7 1 0
BITMAP
10
10
F6
62
62
64
38
ENDCHAR

STARTCHAR char250
ENCODING 250
SWIDTH 75 0
DWIDTH 7 0
BBX 7 7 1 0
BITMAP
08
10
F6
62
62
64
38
ENDCHAR

STARTCHAR char251
ENCODING 251
SWIDTH 75 0
DWIDTH 7 0
BBX 7 7 1 0
BITMAP
18
28
F6
62
62
64
38
ENDCHAR

STARTCHAR char252
ENCODING 252
SWIDTH 75 0
DWIDTH 7 0
BBX 7 7 1 0
BITMAP
14
1C
F6
62
62
64
38
ENDCHAR

STARTCHAR char255
ENCODING 255
SWIDTH 75 0
DWIDTH 7 0
BBX 7 7 1 0
BITMAP
28
28
D6
54
38
38
3C
ENDCHAR
ENDFONT
